<svg xmlns="http://www.w3.org/2000/svg" width="40px" height="25.585px" viewBox="0 0 17.282 11.054">
  <path d="M14.364,7.607c-.672.091-1.63.085-2.308.106-.7.022-1.449.107-2.145.122A8.216,8.216,0,0,0,5.029,9.366a3.5,3.5,0,0,0-1.465,2.011,5.416,5.416,0,0,0,.194,2.193,5.6,5.6,0,0,0,1.985,2.9c1.7,1.714,4.355,1.912,6.765,2.007a9.089,9.089,0,0,0,4.737-.663,6.246,6.246,0,0,0,3.382-5.3c.089-.757.431-2.222-.228-3.244C18.99,7.083,16.039,7.382,14.364,7.607Z" transform="translate(-3.513 -7.452)" fill="#026e59"/>
  <g>
    <path d="M10.381,9.781a4.981,4.981,0,0,0,1.848.534.709.709,0,0,0,.321-.022.269.269,0,0,0,.18-.247.328.328,0,0,0-.125-.21,1.23,1.23,0,0,0-.66-.282.867.867,0,0,0-.72.164.747.747,0,0,0-.132.816,1.568,1.568,0,0,0,.57.65,1.757,1.757,0,0,0,.612.3.867.867,0,0,0,.662-.089A.118.118,0,0,0,13,11.32a.116.116,0,0,0-.028-.072.751.751,0,0,0-.667-.239.668.668,0,0,0-.606.33.655.655,0,0,0,.113.594,1.472,1.472,0,0,0,.771.587c.133.043.32.039.362-.1a.345.345,0,0,0-.518-.076.529.529,0,0,0-.118.562,1.063,1.063,0,0,0,.373.469" transform="translate(-3.513 -7.452)" fill="none" stroke="#fff" stroke-linecap="round" stroke-linejoin="round" stroke-width="0.167"/>
    <path d="M7.062,16.066l.28-2.934a.155.155,0,0,1,.173-.159h.248a.184.184,0,0,1,.191.131l1.019,2.434L9.986,13.1a.191.191,0,0,1,.2-.131h.243a.157.157,0,0,1,.177.159l.276,2.934a.147.147,0,0,1-.164.177h-.154a.161.161,0,0,1-.182-.159l-.2-2.359L9.206,16.07a.192.192,0,0,1-.2.131H8.931a.186.186,0,0,1-.192-.131l-.972-2.345-.205,2.359a.158.158,0,0,1-.178.159H7.23A.149.149,0,0,1,7.062,16.066Z" transform="translate(-3.513 -7.452)" fill="#fff"/>
    <path d="M11.554,15.122a1.112,1.112,0,0,1,.046-.29.177.177,0,0,1,.192-.131h.131c.121,0,.163.071.14.187a1.038,1.038,0,0,0-.028.2.7.7,0,0,0,.752.762c.561,0,.846-.407.846-1.084V13.141a.156.156,0,0,1,.173-.168h.154a.153.153,0,0,1,.168.168v1.626c0,1-.491,1.528-1.336,1.528A1.124,1.124,0,0,1,11.554,15.122Z" transform="translate(-3.513 -7.452)" fill="#fff"/>
    <path d="M16.118,15.015h-.644v1.06a.153.153,0,0,1-.169.168h-.159a.152.152,0,0,1-.168-.168V13.141a.153.153,0,0,1,.168-.168h1.211a.973.973,0,0,1,1,1.032.95.95,0,0,1-.767.986c.033.355.253.888.608.888a.476.476,0,0,0,.238-.056c.1-.047.173-.038.224.061l.024.042a.165.165,0,0,1-.052.233.836.836,0,0,1-.472.136C16.385,16.3,16.151,15.407,16.118,15.015Zm.14-.393a.623.623,0,0,0,0-1.243h-.784v1.243Z" transform="translate(-3.513 -7.452)" fill="#fff"/>
  </g>
</svg>
