<?xml version="1.0" encoding="utf-8"?>
<!-- Generator: Adobe Illustrator 25.2.3, SVG Export Plug-In . SVG Version: 6.00 Build 0)  -->
<svg version="1.1" xmlns="http://www.w3.org/2000/svg" xmlns:xlink="http://www.w3.org/1999/xlink" x="0px" y="0px" width="40px"
	 height="40px" viewBox="0 0 24 24" style="enable-background:new 0 0 24 24;" xml:space="preserve">
<style type="text/css">
	.st0{display:none;}
	.st1{display:inline;}
	.st2{fill:none;stroke:#026E59;stroke-width:0.5107;stroke-linecap:round;stroke-linejoin:round;stroke-miterlimit:10;}
	.st3{fill:#026E59;}
	.st4{fill:none;stroke:#026E59;stroke-width:0.3405;stroke-linecap:round;stroke-linejoin:round;stroke-miterlimit:10;}
	
		.st5{display:inline;fill:none;stroke:#026E59;stroke-width:0.6117;stroke-linecap:round;stroke-linejoin:round;stroke-miterlimit:10;}
	
		.st6{display:inline;fill:none;stroke:#026E59;stroke-width:0.4078;stroke-linecap:round;stroke-linejoin:round;stroke-miterlimit:10;}
	
		.st7{display:inline;fill:#FFFFFF;stroke:#026E59;stroke-width:0.4078;stroke-linecap:round;stroke-linejoin:round;stroke-miterlimit:10;}
	.st8{fill:none;stroke:#026E59;stroke-width:0.5965;stroke-linecap:round;stroke-linejoin:round;stroke-miterlimit:10;}
	.st9{fill:none;stroke:#026E59;stroke-width:0.3977;stroke-linecap:round;stroke-linejoin:round;stroke-miterlimit:10;}
	.st10{fill:none;stroke:#026E59;stroke-width:0.5255;stroke-linecap:round;stroke-linejoin:round;stroke-miterlimit:10;}
</style>
<g id="GIFT_CARD" class="st0">
	<g class="st1">
		<path class="st2" d="M17.5,19.4h-11c-1.1,0-2-0.9-2-2v-6.5c0-1.1,0.9-2,2-2h11c1.1,0,2,0.9,2,2v6.5C19.5,18.4,18.6,19.4,17.5,19.4
			z"/>
		<rect x="4.5" y="15.9" class="st3" width="15.1" height="1.6"/>
		<path class="st2" d="M10.2,8.8C8.2,8.7,7.5,7,8,6.2c0.4-0.6,1.3-0.8,2-0.4c1.6,1,1.9,3,1.9,3H10.2"/>
		<path class="st2" d="M13.8,8.8c2-0.1,2.6-1.8,2.1-2.6c-0.4-0.6-1.3-0.8-2-0.4c-1.6,1-1.9,3-1.9,3H13.8"/>
		<path class="st4" d="M12,8.7c0.2,0.8-0.4,1.7-1.2,2c-0.2,0.1-0.5,0.1-0.8,0c-0.2-0.1-0.5-0.3-0.5-0.5c0-0.1,0-0.2,0-0.3
			c0,0,0.1-0.1,0.2-0.1c0.1,0,0.2,0,0.3,0.1c0.2,0.1,0.2,0.5,0.1,0.8S9.7,11,9.4,11.2S9,11.6,9,11.9"/>
		<path class="st4" d="M12,8.7c-0.2,0.8,0.4,1.7,1.2,2c0.2,0.1,0.5,0.1,0.8,0c0.2-0.1,0.5-0.3,0.5-0.5c0-0.1,0-0.2,0-0.3
			c0,0-0.1-0.1-0.2-0.1c-0.1,0-0.2,0-0.3,0.1c-0.2,0.1-0.2,0.5-0.1,0.8s0.4,0.4,0.7,0.5s0.5,0.4,0.4,0.7"/>
	</g>
</g>
<g id="ONLINE" class="st0">
	<path class="st5" d="M14.8,19.4H9.5c-0.8,0-1.4-0.6-1.4-1.4v-11c0-0.8,0.6-1.4,1.4-1.4h5.3c0.8,0,1.4,0.6,1.4,1.4v11
		C16.2,18.7,15.6,19.4,14.8,19.4z"/>
	<line class="st5" x1="10.9" y1="18.3" x2="13.4" y2="18.3"/>
	<path class="st6" d="M9.8,2.2c0.2,0.9,0.8,1.6,1.6,2s1.7,0.3,2.5,0.1c0.2,0,0.5-0.2,0.6-0.3c0.2-0.1,0.2-0.4,0.2-0.6
		c-0.1-0.1-0.2-0.2-0.3-0.3C14,2.9,13.3,3,12.8,3.2c-0.5,0.2-0.9,0.6-1.1,1c-0.2,0.3-0.4,0.8-0.4,1.4c0,0.9,0.6,1.8,1.4,1.9
		c0.3,0,0.7-0.1,0.8-0.4c0-0.3-0.2-0.6-0.5-0.6s-0.5,0.2-0.7,0.4c-0.4,0.5-0.7,1.1-0.6,1.7s0.6,1.2,1.2,1.3c0.2,0,0.4,0,0.5-0.1
		c0.1-0.1,0.2-0.4,0.1-0.5c-0.1-0.1-0.2-0.1-0.3-0.1c-0.3,0-0.6,0.2-0.8,0.5c-0.2,0.3-0.1,0.6-0.1,0.9c0,0.6,0,1.3,0,1.9"/>
	<polygon class="st7" points="11.2,12.4 13.2,12.4 12.2,13.8 	"/>
</g>
<g id="DELIVERY">
	<g>
		<path class="st8" d="M7.7,7.5c0,0,1.1,11.2,1.4,11.4c0.8,0.8,5,0.8,5.8,0c0.2-0.2,1.4-11.4,1.4-11.4"/>
		<line class="st8" x1="16" y1="2.2" x2="11.4" y2="17.9"/>
		<path class="st3" d="M16.5,7.5H7.5c-0.2,0-0.4-0.2-0.4-0.4v0c0-0.2,0.2-0.4,0.4-0.4h9.1c0.2,0,0.4,0.2,0.4,0.4v0
			C16.9,7.3,16.7,7.5,16.5,7.5z"/>
		<g>
			<path class="st9" d="M6.3,12.1c-0.8-0.2-1.6-0.6-2-1.3C4,10.4,3.9,10,3.9,9.6C3.8,8.8,4,8.1,4.3,7.5C4.5,8.2,5,8.8,5.6,9.3
				s1.5,0.9,2.5,1.1l0.6,5.9c-1.3,0.1-2.7-0.3-3.9-1c-0.5-0.3-0.9-0.7-1-1.2C4.4,14.3,5,14.3,5.5,14"/>
			<path class="st9" d="M4.9,11.5c-0.2,0.1-0.5,0-0.7-0.1c-0.1,0-0.3-0.1-0.4-0.2c-0.3-0.2-0.7-0.6-0.8-0.9c-0.3,0.4-0.2,1,0.1,1.5
				c0.3,0.6,0.7,1.1,1.2,1.5c0.6,0.4,1.3,0.7,2,0.9c0.4,0.1,0.7,0.1,1.1,0.2"/>
		</g>
		<g>
			<path class="st9" d="M17.7,12.1c0.8-0.2,1.6-0.6,2-1.3c0.2-0.4,0.4-0.8,0.4-1.2c0.1-0.7-0.1-1.4-0.4-2.1
				c-0.2,0.7-0.7,1.4-1.3,1.8s-1.5,0.9-2.5,1.1l-0.6,5.9c1.3,0.1,2.7-0.3,3.9-1c0.5-0.3,0.9-0.7,1-1.2c-0.6,0.2-1.2,0.1-1.8-0.2"/>
			<path class="st9" d="M19.1,11.5c0.2,0.1,0.5,0,0.7-0.1c0.1,0,0.3-0.1,0.4-0.2c0.3-0.2,0.7-0.6,0.8-0.9c0.3,0.4,0.2,1-0.1,1.5
				c-0.3,0.6-0.7,1.1-1.2,1.5c-0.6,0.4-1.3,0.7-2,0.9c-0.4,0.1-0.7,0.1-1.1,0.2"/>
		</g>
		<path class="st10" d="M7.7,7.5"/>
	</g>
</g>
</svg>
