<svg xmlns="http://www.w3.org/2000/svg" width="20px" height="40.4px" viewBox="0 0 8.725 17.633">
  <rect x="0.306" y="3.441" width="8.113" height="13.887" rx="1.424" fill="none" stroke="#026e59" stroke-linecap="round" stroke-linejoin="round" stroke-width="0.612"/>
  <line x1="3.123" y1="16.242" x2="5.602" y2="16.242" fill="none" stroke="#026e59" stroke-linecap="round" stroke-linejoin="round" stroke-width="0.612"/>
  <path d="M9.79,2.232a2.706,2.706,0,0,0,1.622,1.955,4.2,4.2,0,0,0,2.543.15,1.511,1.511,0,0,0,.631-.3.6.6,0,0,0,.152-.64.6.6,0,0,0-.286-.264,1.985,1.985,0,0,0-1.611.084A3,3,0,0,0,11.7,4.2a2.965,2.965,0,0,0-.444,1.4,1.705,1.705,0,0,0,1.424,1.853c.313.033.7-.1.754-.421a.53.53,0,0,0-.525-.561,1.055,1.055,0,0,0-.741.391,2.142,2.142,0,0,0-.593,1.733,1.483,1.483,0,0,0,1.186,1.273.675.675,0,0,0,.547-.141.408.408,0,0,0,.057-.541.4.4,0,0,0-.286-.119.9.9,0,0,0-.767.51,1.764,1.764,0,0,0-.146.909c0,.63,0,1.3,0,1.924" transform="translate(-7.807 -2.028)" fill="none" stroke="#026e59" stroke-linecap="round" stroke-linejoin="round" stroke-width="0.408"/>
  <polygon points="3.379 10.384 5.345 10.388 4.385 11.805 3.379 10.384" fill="#fff" stroke="#026e59" stroke-linecap="round" stroke-linejoin="round" stroke-width="0.408"/>
</svg>
